<svg xmlns="http://www.w3.org/2000/svg" version="1.1" xmlns:xlink="http://www.w3.org/1999/xlink" xmlns:svgjs="http://svgjs.dev/svgjs" width="64px" height="64px"><svg xmlns="http://www.w3.org/2000/svg" viewBox="0 0 64 64" width="64px" height="64px" style="" xmlns:bx="https://boxy-svg.com"><defs><bx:export><bx:file format="svg" path="favicon.svg"></bx:file></bx:export></defs><path d="M 11.956 45.79 L 11.956 43.549 L 13.99 43.19 C 14.475 43.109 14.795 42.943 14.949 42.69 C 15.102 42.436 15.179 41.923 15.179 41.15 L 15.179 22.229 C 15.179 21.563 15.096 21.103 14.93 20.849 C 14.764 20.596 14.425 20.43 13.913 20.349 L 11.956 20.029 L 11.956 17.79 L 22.316 17.79 C 24.669 17.79 26.575 18.036 28.033 18.529 C 29.491 19.023 30.572 19.756 31.275 20.729 C 31.979 21.703 32.331 22.923 32.331 24.39 C 32.331 25.43 32.094 26.383 31.62 27.25 C 31.148 28.116 30.495 28.85 29.664 29.45 C 28.833 30.05 27.88 30.496 26.805 30.789 L 26.805 30.989 C 29.082 31.203 30.828 31.883 32.043 33.03 C 33.258 34.176 33.866 35.763 33.866 37.789 C 33.866 39.47 33.437 40.91 32.58 42.11 C 31.723 43.31 30.463 44.223 28.801 44.849 C 27.138 45.476 25.104 45.79 22.7 45.79 L 11.956 45.79 Z M 22.354 43.19 C 23.812 43.19 25.027 42.976 25.999 42.549 C 26.971 42.123 27.707 41.496 28.206 40.669 C 28.704 39.843 28.954 38.83 28.954 37.63 C 28.954 36.456 28.704 35.496 28.206 34.75 C 27.707 34.003 26.984 33.443 26.038 33.07 C 25.092 32.696 23.902 32.509 22.469 32.509 C 21.318 32.509 20.436 32.563 19.822 32.67 L 19.822 42.99 C 20.103 43.043 20.467 43.09 20.915 43.13 C 21.363 43.17 21.842 43.19 22.354 43.19 Z M 21.778 30.07 C 22.981 30.07 24.004 29.863 24.848 29.45 C 25.692 29.036 26.345 28.423 26.805 27.609 C 27.266 26.796 27.496 25.843 27.496 24.75 C 27.496 23.71 27.304 22.863 26.921 22.21 C 26.537 21.556 25.942 21.076 25.136 20.77 C 24.33 20.463 23.25 20.31 21.894 20.31 L 19.822 20.31 L 19.822 29.989 C 20.052 30.016 20.327 30.036 20.647 30.05 C 20.966 30.063 21.344 30.07 21.778 30.07 Z M 39.497 46.149 L 38.26 45.939 L 38.26 26.74 C 38.26 26.059 38.193 25.61 38.058 25.39 C 37.924 25.17 37.598 25.02 37.08 24.939 L 35.871 24.76 L 36.073 22.99 L 41.195 22.809 L 41.57 23.139 L 41.57 32.679 L 41.57 32.86 C 41.992 32.22 42.442 31.699 42.922 31.299 C 43.402 30.899 43.929 30.599 44.505 30.399 C 45.081 30.199 45.723 30.099 46.433 30.099 C 47.603 30.099 48.605 30.399 49.44 30.999 C 50.275 31.599 50.917 32.455 51.368 33.565 C 51.819 34.675 52.045 36.02 52.045 37.599 C 52.045 39.4 51.781 40.945 51.253 42.235 C 50.726 43.525 49.954 44.509 48.937 45.19 C 47.92 45.87 46.682 46.21 45.224 46.21 C 44.361 46.21 43.57 46.09 42.85 45.849 C 42.13 45.609 41.464 45.27 40.85 44.83 L 39.497 46.149 Z M 44.822 44.02 C 45.627 44.02 46.303 43.79 46.85 43.33 C 47.397 42.87 47.814 42.19 48.102 41.289 C 48.39 40.39 48.534 39.31 48.534 38.05 C 48.534 36.81 48.409 35.78 48.16 34.96 C 47.911 34.14 47.536 33.53 47.037 33.13 C 46.538 32.73 45.925 32.53 45.196 32.53 C 44.447 32.53 43.795 32.695 43.239 33.025 C 42.682 33.355 42.265 33.825 41.987 34.435 C 41.709 35.045 41.57 35.79 41.57 36.669 L 41.57 42.73 C 41.972 43.13 42.461 43.445 43.037 43.674 C 43.613 43.905 44.208 44.02 44.822 44.02 Z" style="fill: rgb(26, 26, 26); text-wrap-mode: nowrap;"></path></svg><style>@media (prefers-color-scheme: light) { :root { filter: none; } }
@media (prefers-color-scheme: dark) { :root { filter: invert(100%); } }
</style></svg>