<svg xmlns="http://www.w3.org/2000/svg" version="1.1" xmlns:xlink="http://www.w3.org/1999/xlink" xmlns:svgjs="http://svgjs.dev/svgjs" width="1000" height="1000"><style>
    #light-icon {
      display: inline;
    }
    #dark-icon {
      display: none;
    }

    @media (prefers-color-scheme: dark) {
      #light-icon {
        display: none;
      }
      #dark-icon {
        display: inline;
      }
    }
  </style><g id="light-icon"><svg xmlns="http://www.w3.org/2000/svg" version="1.1" xmlns:xlink="http://www.w3.org/1999/xlink" xmlns:svgjs="http://svgjs.dev/svgjs" width="1000" height="1000"><g clip-path="url(#SvgjsClipPath1395)"><rect width="1000" height="1000" fill="#ede7e3"></rect><g transform="matrix(10.9375,0,0,10.9375,150,150)"><svg xmlns="http://www.w3.org/2000/svg" version="1.1" xmlns:xlink="http://www.w3.org/1999/xlink" xmlns:svgjs="http://svgjs.dev/svgjs" width="64px" height="64px"><svg xmlns="http://www.w3.org/2000/svg" viewBox="0 0 64 64" width="64px" height="64px" style="" xmlns:bx="https://boxy-svg.com"><defs><bx:export><bx:file format="svg" path="favicon.svg"></bx:file></bx:export><clipPath id="SvgjsClipPath1395"><rect width="1000" height="1000" x="0" y="0" rx="300" ry="300"></rect></clipPath></defs><path d="M 6.95 50.633 L 6.95 47.605 L 9.492 47.119 C 10.098 47.01 10.498 46.786 10.69 46.444 C 10.882 46.101 10.978 45.408 10.978 44.363 L 10.978 18.798 C 10.978 17.898 10.874 17.276 10.667 16.933 C 10.459 16.591 10.036 16.367 9.396 16.258 L 6.95 15.825 L 6.95 12.8 L 19.897 12.8 C 22.838 12.8 25.22 13.132 27.042 13.799 C 28.864 14.466 30.215 15.456 31.093 16.771 C 31.973 18.087 32.413 19.736 32.413 21.718 C 32.413 23.123 32.117 24.411 31.524 25.582 C 30.935 26.752 30.119 27.744 29.08 28.555 C 28.042 29.365 26.851 29.968 25.507 30.364 L 25.507 30.634 C 28.353 30.923 30.535 31.842 32.053 33.392 C 33.572 34.94 34.331 37.084 34.331 39.822 C 34.331 42.093 33.795 44.039 32.724 45.66 C 31.653 47.282 30.079 48.515 28.002 49.361 C 25.923 50.208 23.381 50.633 20.377 50.633 L 6.95 50.633 Z M 19.945 47.119 C 21.767 47.119 23.285 46.83 24.5 46.253 C 25.715 45.678 26.634 44.831 27.258 43.713 C 27.88 42.597 28.193 41.228 28.193 39.607 C 28.193 38.021 27.88 36.724 27.258 35.716 C 26.634 34.706 25.731 33.95 24.549 33.446 C 23.366 32.94 21.879 32.688 20.088 32.688 C 18.65 32.688 17.548 32.761 16.78 32.905 L 16.78 46.849 C 17.131 46.921 17.586 46.984 18.146 47.038 C 18.706 47.092 19.305 47.119 19.945 47.119 Z M 19.225 29.392 C 20.728 29.392 22.007 29.113 23.061 28.555 C 24.116 27.995 24.932 27.167 25.507 26.067 C 26.083 24.969 26.371 23.681 26.371 22.204 C 26.371 20.799 26.131 19.654 25.652 18.772 C 25.172 17.888 24.429 17.24 23.421 16.826 C 22.414 16.412 21.064 16.205 19.37 16.205 L 16.78 16.205 L 16.78 29.283 C 17.068 29.319 17.411 29.346 17.811 29.365 C 18.21 29.383 18.682 29.392 19.225 29.392 Z M 41.369 51.118 L 39.823 50.834 L 39.823 24.893 C 39.823 23.973 39.739 23.366 39.57 23.069 C 39.403 22.772 38.995 22.569 38.348 22.459 L 36.837 22.218 L 37.089 19.826 L 43.491 19.581 L 43.959 20.027 L 43.959 32.917 L 43.959 33.162 C 44.487 32.297 45.049 31.593 45.649 31.053 C 46.249 30.512 46.907 30.107 47.627 29.837 C 48.347 29.567 49.149 29.431 50.037 29.431 C 51.499 29.431 52.751 29.837 53.794 30.647 C 54.838 31.458 55.64 32.615 56.204 34.115 C 56.768 35.614 57.05 37.432 57.05 39.565 C 57.05 41.999 56.72 44.086 56.06 45.829 C 55.402 47.572 54.437 48.902 53.166 49.822 C 51.895 50.741 50.348 51.2 48.526 51.2 C 47.447 51.2 46.459 51.038 45.559 50.712 C 44.659 50.388 43.827 49.93 43.059 49.335 L 41.369 51.118 Z M 48.023 48.241 C 49.029 48.241 49.874 47.93 50.558 47.309 C 51.241 46.687 51.762 45.768 52.122 44.551 C 52.482 43.336 52.662 41.877 52.662 40.175 C 52.662 38.499 52.506 37.107 52.195 35.999 C 51.884 34.891 51.415 34.067 50.791 33.527 C 50.168 32.986 49.402 32.716 48.491 32.716 C 47.555 32.716 46.74 32.939 46.045 33.385 C 45.349 33.831 44.828 34.466 44.48 35.29 C 44.133 36.114 43.959 37.121 43.959 38.309 L 43.959 46.498 C 44.462 47.038 45.073 47.464 45.793 47.773 C 46.512 48.086 47.256 48.241 48.023 48.241 Z" style="fill: rgb(26, 26, 26); text-wrap-mode: nowrap;"></path></svg></svg></g></g></svg></g><g id="dark-icon"><svg xmlns="http://www.w3.org/2000/svg" version="1.1" xmlns:xlink="http://www.w3.org/1999/xlink" xmlns:svgjs="http://svgjs.dev/svgjs" width="1000" height="1000"><g clip-path="url(#SvgjsClipPath1396)"><rect width="1000" height="1000" fill="#1a1a1a"></rect><g transform="matrix(10.9375,0,0,10.9375,150,150)"><svg xmlns="http://www.w3.org/2000/svg" version="1.1" xmlns:xlink="http://www.w3.org/1999/xlink" xmlns:svgjs="http://svgjs.dev/svgjs" width="64px" height="64px"><svg xmlns="http://www.w3.org/2000/svg" viewBox="0 0 64 64" width="64px" height="64px" style="" xmlns:bx="https://boxy-svg.com"><defs><bx:export><bx:file format="svg" path="favicon.svg"></bx:file></bx:export><clipPath id="SvgjsClipPath1396"><rect width="1000" height="1000" x="0" y="0" rx="300" ry="300"></rect></clipPath></defs><path d="M 6.95 50.633 L 6.95 47.605 L 9.492 47.119 C 10.098 47.01 10.498 46.786 10.69 46.444 C 10.882 46.101 10.978 45.408 10.978 44.363 L 10.978 18.798 C 10.978 17.898 10.874 17.276 10.667 16.933 C 10.459 16.591 10.036 16.367 9.396 16.258 L 6.95 15.825 L 6.95 12.8 L 19.897 12.8 C 22.838 12.8 25.22 13.132 27.042 13.799 C 28.864 14.466 30.215 15.456 31.093 16.771 C 31.973 18.087 32.413 19.736 32.413 21.718 C 32.413 23.123 32.117 24.411 31.524 25.582 C 30.935 26.752 30.119 27.744 29.08 28.555 C 28.042 29.365 26.851 29.968 25.507 30.364 L 25.507 30.634 C 28.353 30.923 30.535 31.842 32.053 33.392 C 33.572 34.94 34.331 37.084 34.331 39.822 C 34.331 42.093 33.795 44.039 32.724 45.66 C 31.653 47.282 30.079 48.515 28.002 49.361 C 25.923 50.208 23.381 50.633 20.377 50.633 L 6.95 50.633 Z M 19.945 47.119 C 21.767 47.119 23.285 46.83 24.5 46.253 C 25.715 45.678 26.634 44.831 27.258 43.713 C 27.88 42.597 28.193 41.228 28.193 39.607 C 28.193 38.021 27.88 36.724 27.258 35.716 C 26.634 34.706 25.731 33.95 24.549 33.446 C 23.366 32.94 21.879 32.688 20.088 32.688 C 18.65 32.688 17.548 32.761 16.78 32.905 L 16.78 46.849 C 17.131 46.921 17.586 46.984 18.146 47.038 C 18.706 47.092 19.305 47.119 19.945 47.119 Z M 19.225 29.392 C 20.728 29.392 22.007 29.113 23.061 28.555 C 24.116 27.995 24.932 27.167 25.507 26.067 C 26.083 24.969 26.371 23.681 26.371 22.204 C 26.371 20.799 26.131 19.654 25.652 18.772 C 25.172 17.888 24.429 17.24 23.421 16.826 C 22.414 16.412 21.064 16.205 19.37 16.205 L 16.78 16.205 L 16.78 29.283 C 17.068 29.319 17.411 29.346 17.811 29.365 C 18.21 29.383 18.682 29.392 19.225 29.392 Z M 41.369 51.118 L 39.823 50.834 L 39.823 24.893 C 39.823 23.973 39.739 23.366 39.57 23.069 C 39.403 22.772 38.995 22.569 38.348 22.459 L 36.837 22.218 L 37.089 19.826 L 43.491 19.581 L 43.959 20.027 L 43.959 32.917 L 43.959 33.162 C 44.487 32.297 45.049 31.593 45.649 31.053 C 46.249 30.512 46.907 30.107 47.627 29.837 C 48.347 29.567 49.149 29.431 50.037 29.431 C 51.499 29.431 52.751 29.837 53.794 30.647 C 54.838 31.458 55.64 32.615 56.204 34.115 C 56.768 35.614 57.05 37.432 57.05 39.565 C 57.05 41.999 56.72 44.086 56.06 45.829 C 55.402 47.572 54.437 48.902 53.166 49.822 C 51.895 50.741 50.348 51.2 48.526 51.2 C 47.447 51.2 46.459 51.038 45.559 50.712 C 44.659 50.388 43.827 49.93 43.059 49.335 L 41.369 51.118 Z M 48.023 48.241 C 49.029 48.241 49.874 47.93 50.558 47.309 C 51.241 46.687 51.762 45.768 52.122 44.551 C 52.482 43.336 52.662 41.877 52.662 40.175 C 52.662 38.499 52.506 37.107 52.195 35.999 C 51.884 34.891 51.415 34.067 50.791 33.527 C 50.168 32.986 49.402 32.716 48.491 32.716 C 47.555 32.716 46.74 32.939 46.045 33.385 C 45.349 33.831 44.828 34.466 44.48 35.29 C 44.133 36.114 43.959 37.121 43.959 38.309 L 43.959 46.498 C 44.462 47.038 45.073 47.464 45.793 47.773 C 46.512 48.086 47.256 48.241 48.023 48.241 Z" style="text-wrap-mode: nowrap; fill: rgb(237, 231, 227);"></path></svg></svg></g></g></svg></g></svg>